<svg xmlns="http://www.w3.org/2000/svg" fill="none" viewBox="0 0 600 188" height="188" width="600">
<path fill="#FFACAC" d="M0 3.80298H158.998V71.9463C132.37 68.1759 105.48 67.4919 78.3551 69.8942V78.1271H132.386V135.212H78.3551V183.559H0V3.80298Z"></path>
<path fill="#FFACAC" d="M248.844 130.326C245.766 129.992 244.243 130.839 244.243 132.899C244.243 134.959 245.514 136.336 248.087 137.02C248.771 137.191 249.545 137.28 250.392 137.28C273.429 138.143 299.634 133.412 328.991 123.127L323.095 178.673C317.81 181.246 308.844 183.526 296.206 185.489C283.576 187.451 268.38 188.103 250.628 187.419C233.901 186.906 219.138 182.704 206.336 174.821C193.535 166.938 183.844 156.865 177.281 144.609C170.709 132.345 167.33 119.113 167.159 104.87C166.996 98.8764 167.631 92.6956 169.081 86.3519C170.538 80.0083 173.307 73.2412 177.395 66.0425C181.483 58.8438 186.646 52.5002 192.892 47.0116C199.121 41.5311 207.566 36.9871 218.234 33.3796C228.901 29.7721 240.97 28.0702 254.463 28.2412C278.185 28.4122 296.149 32.1093 308.356 39.2998C320.563 46.4985 327.688 58.2412 329.732 74.536C330.579 81.7347 329.993 88.3389 327.949 94.3406C325.905 100.35 322.826 105.261 318.739 109.129C314.651 112.997 309.911 116.417 304.528 119.414C299.154 122.411 293.608 124.56 287.883 125.847C282.159 127.126 276.662 128.298 271.369 129.316C266.084 130.35 261.458 130.774 257.541 130.611C253.616 130.44 250.709 130.35 248.828 130.35V130.318L248.844 130.326ZM252.436 71.6858C247.484 72.036 243.861 74.9432 241.556 80.4318C239.252 85.9204 239.3 91.1402 241.678 96.1158C251.914 89.7721 257.647 86.1809 258.828 85.3177C260.538 83.7787 261.385 81.8975 261.385 79.6581C261.385 77.4187 260.538 75.5539 258.828 73.9985C256.784 72.2966 254.651 71.5148 252.419 71.6858H252.436Z"></path>
<path fill="#FFACAC" d="M420.985 183.559C422.516 167.614 423.33 151.336 423.428 134.691C423.501 118.062 422.793 104.78 421.246 94.8291C421.083 92.9399 420.431 91.5311 419.324 90.5865C418.216 89.6418 417.019 89.1695 415.733 89.1695C414.446 89.1695 413.265 89.6418 412.142 90.5865C411.034 91.5311 410.309 92.948 409.959 94.8291C408.599 104.593 407.948 117.85 408.037 134.552C408.111 151.27 408.933 167.598 410.48 183.542H338.273V28.4773H408.168V41.8487C410.562 39.1125 415.122 36.1891 421.856 33.1027C428.599 30.0164 435.293 28.4773 441.954 28.4773C458.347 28.3063 470.537 34.0474 478.567 45.7167C480.961 40.4073 485.871 36.2053 493.29 33.119C500.708 30.0327 507.923 28.4936 514.918 28.4936C521.067 28.3226 526.702 28.8764 531.824 30.1711C536.946 31.4659 541.384 33.0457 545.138 34.935C548.892 36.8242 552.215 39.3894 555.122 42.6467C558.029 45.904 560.407 48.9415 562.288 51.7754C564.169 54.6093 565.741 58.119 567.028 62.321C568.298 66.5229 569.243 70.0816 569.845 72.9887C570.44 75.9122 570.904 79.4545 571.254 83.6565C571.588 87.8584 571.8 90.9855 571.889 93.0457C571.979 95.0978 571.938 97.7607 571.767 101.018V183.567H499.821C501.352 167.622 502.166 151.295 502.256 134.577C502.329 117.858 501.62 104.617 500.073 94.8535C499.91 92.9643 499.259 91.5555 498.151 90.6109C497.044 89.6663 495.847 89.1939 494.56 89.1939C493.273 89.1939 492.093 89.6663 490.969 90.6109C489.861 91.5555 489.21 92.9724 489.047 94.8535C487.516 104.617 486.775 117.875 486.865 134.577C486.938 151.295 487.76 167.622 489.3 183.567H420.936H420.985V183.559Z"></path>
<path fill="#FFACAC" d="M584.553 9.59277V11.2296H581.792V18.8599H579.854V11.2296H577.077V9.59277H584.553Z"></path>
<path fill="#FFACAC" d="M587.451 18.8682H585.659V9.60107H588.46L590.138 16.8893L591.799 9.60107H594.576V18.8682H592.785V11.0913L591.034 18.8682H589.161L587.418 11.0913V18.8682H587.451Z"></path>
<path fill="#FFACAC" d="M585.831 28.4692C578.021 28.4692 571.661 22.0848 571.661 14.2346C571.661 6.38449 578.021 0.00012207 585.831 0.00012207C593.64 0.00012207 600 6.38449 600 14.2346C600 22.0848 593.64 28.4692 585.831 28.4692ZM585.831 2.48383C579.389 2.48383 574.137 7.76071 574.137 14.2346C574.137 20.7086 579.389 25.9855 585.831 25.9855C592.272 25.9855 597.524 20.7086 597.524 14.2346C597.524 7.76071 592.272 2.48383 585.831 2.48383Z"></path>
</svg>
